<svg width="42" height="48" viewBox="0 0 42 48" fill="none" xmlns="http://www.w3.org/2000/svg">
<path id="Vector" d="M39.74 24.25C40.2956 23.6944 40.6845 23.25 40.9067 22.9167C41.24 22.25 41.4067 21.6389 41.4067 21.0833C41.4067 20.5278 41.24 19.9722 40.9067 19.4167C40.6845 18.9722 40.2956 18.4722 39.74 17.9167C39.0734 17.1389 38.7122 16.6111 38.6567 16.3333C38.6011 16.0556 38.6845 15.4167 38.9067 14.4167C39.0178 13.6389 39.0734 13.0833 39.0734 12.75C39.0734 11.9722 38.9345 11.3611 38.6567 10.9167C38.3789 10.4722 37.9622 10.0833 37.4067 9.75C36.9622 9.52777 36.4067 9.30555 35.74 9.08333C34.74 8.75 34.1289 8.47222 33.9067 8.25C33.6845 8.02777 33.4345 7.5 33.1567 6.66666C32.8789 5.83333 32.6289 5.19444 32.4067 4.75C32.0734 4.19444 31.6845 3.77777 31.24 3.5C30.7956 3.22222 30.24 3.08333 29.5734 3.08333C29.1289 3.08333 28.5178 3.19444 27.74 3.41666C26.74 3.52777 26.1011 3.55555 25.8234 3.5C25.5456 3.44444 25.0178 3.08333 24.24 2.41666C23.6845 1.86111 23.1845 1.47222 22.74 1.25C22.1845 0.916664 21.6289 0.75 21.0734 0.75C20.5178 0.75 19.9622 0.916664 19.4067 1.25C18.9622 1.47222 18.4622 1.86111 17.9067 2.41666C17.1289 3.08333 16.6011 3.44444 16.3234 3.5C16.0456 3.55555 15.4622 3.5 14.5734 3.33333C13.6845 3.16666 13.0178 3.08333 12.5734 3.08333C11.9067 3.08333 11.3511 3.22222 10.9067 3.5C10.4622 3.77777 10.0734 4.19444 9.74002 4.75C9.5178 5.19444 9.29558 5.75 9.07335 6.41666C8.74002 7.41666 8.46224 8.02777 8.24002 8.25C8.0178 8.47222 7.49002 8.72222 6.65669 9C5.82335 9.27777 5.18447 9.52777 4.74002 9.75C4.18447 10.0833 3.7678 10.4722 3.49002 10.9167C3.21224 11.3611 3.07335 11.9722 3.07335 12.75C3.07335 13.0833 3.15669 13.6944 3.32335 14.5833C3.49002 15.4722 3.54558 16.0556 3.49002 16.3333C3.43447 16.6111 3.07335 17.1389 2.40669 17.9167C1.85113 18.4722 1.46224 18.9722 1.24002 19.4167C0.906687 19.9722 0.740021 20.5278 0.740021 21.0833C0.740021 21.6389 0.906687 22.25 1.24002 22.9167C1.46224 23.25 1.85113 23.6944 2.40669 24.25C3.07335 25.0278 3.43447 25.5556 3.49002 25.8333C3.54558 26.1111 3.46224 26.75 3.24002 27.75C3.12891 28.5278 3.07335 29.1389 3.07335 29.5833C3.07335 30.25 3.21224 30.8056 3.49002 31.25C3.7678 31.6944 4.18447 32.0833 4.74002 32.4167C5.18447 32.6389 5.74002 32.9167 6.40669 33.25C7.40669 33.4722 8.0178 33.6944 8.24002 33.9167V34.0833L4.40669 46.25C4.29558 46.5833 4.35113 46.9167 4.57335 47.25C4.79558 47.5833 5.07335 47.6944 5.40669 47.5833H14.9067C15.3511 47.5833 15.6289 47.3611 15.74 46.9167L18.0734 39.9167C18.6289 40.3611 19.1289 40.7222 19.5734 41C20.0178 41.2778 20.5178 41.4167 21.0734 41.4167C21.6289 41.4167 22.1289 41.2778 22.5734 41C23.0178 40.7222 23.5178 40.3611 24.0734 39.9167L26.4067 46.9167C26.5178 47.4722 26.8511 47.75 27.4067 47.75H36.74C37.0734 47.75 37.3511 47.5833 37.5734 47.25C37.7956 46.9167 37.8511 46.5833 37.74 46.25L33.9067 34.0833V33.9167C34.1289 33.6944 34.6567 33.4444 35.49 33.1667C36.3234 32.8889 36.9622 32.6389 37.4067 32.4167C37.9622 32.0833 38.3789 31.6944 38.6567 31.25C38.9345 30.8056 39.0734 30.25 39.0734 29.5833C39.0734 29.1389 38.99 28.4722 38.8234 27.5833C38.6567 26.6944 38.6011 26.1111 38.6567 25.8333C38.7122 25.5556 39.0734 25.0278 39.74 24.25ZM14.0734 45.5833H6.90669L9.57335 37.0833C9.90669 37.8611 10.3234 38.3889 10.8234 38.6667C11.3234 38.9444 11.9067 39.0833 12.5734 39.0833C13.0178 39.0833 13.6289 39.0278 14.4067 38.9167C15.2956 38.6944 15.9067 38.6389 16.24 38.75L14.0734 45.5833ZM28.0734 45.5833L25.9067 38.75C26.24 38.6389 26.8234 38.6667 27.6567 38.8333C28.49 39 29.1289 39.0833 29.5734 39.0833C30.24 39.0833 30.8234 38.9444 31.3234 38.6667C31.8234 38.3889 32.24 37.8611 32.5734 37.0833L35.24 45.5833H28.0734ZM38.24 22.9167C37.3511 23.9167 36.8234 24.7222 36.6567 25.3333C36.49 25.9444 36.5178 26.8611 36.74 28.0833C36.9622 29.1944 36.99 29.8889 36.8234 30.1667C36.6567 30.4444 36.0734 30.8056 35.0734 31.25C33.8511 31.6944 32.99 32.1389 32.49 32.5833C31.99 33.0278 31.5734 33.8611 31.24 35.0833C30.7956 36.0833 30.4345 36.6667 30.1567 36.8333C29.8789 37 29.1567 36.9722 27.99 36.75C26.8234 36.5278 25.9345 36.5 25.3234 36.6667C24.7122 36.8333 23.9067 37.3611 22.9067 38.25C22.0178 38.9167 21.4067 39.25 21.0734 39.25C20.74 39.25 20.1289 38.9167 19.24 38.25C18.24 37.3611 17.4622 36.8611 16.9067 36.75C16.5734 36.6389 16.2122 36.5833 15.8234 36.5833C15.4345 36.5833 14.8511 36.6389 14.0734 36.75C12.9622 36.9722 12.2678 37 11.99 36.8333C11.7122 36.6667 11.3511 36.0833 10.9067 35.0833C10.5734 33.8611 10.1567 33.0278 9.65669 32.5833C9.15669 32.1389 8.29558 31.6944 7.07335 31.25C6.07335 30.8056 5.49002 30.4444 5.32335 30.1667C5.15669 29.8889 5.18447 29.1944 5.40669 28.0833C5.62891 26.8611 5.65669 25.9444 5.49002 25.3333C5.32335 24.7222 4.79558 23.9167 3.90669 22.9167C3.24002 22.0278 2.90669 21.4167 2.90669 21.0833C2.90669 20.75 3.24002 20.1389 3.90669 19.25C4.79558 18.25 5.32335 17.4444 5.49002 16.8333C5.65669 16.2222 5.62891 15.3056 5.40669 14.0833C5.18447 12.9722 5.15669 12.2778 5.32335 12C5.49002 11.7222 6.07335 11.3611 7.07335 10.9167C8.29558 10.5833 9.15669 10.1944 9.65669 9.75C10.1567 9.30555 10.5734 8.47222 10.9067 7.25C11.3511 6.13889 11.7122 5.5 11.99 5.33333C12.2678 5.16666 12.99 5.19444 14.1567 5.41666C15.3234 5.63889 16.2122 5.66666 16.8234 5.5C17.4345 5.33333 18.24 4.86111 19.24 4.08333C20.1289 3.30555 20.74 2.91666 21.0734 2.91666C21.4067 2.91666 22.0178 3.30555 22.9067 4.08333C23.9067 4.86111 24.7122 5.33333 25.3234 5.5C25.9345 5.66666 26.8234 5.63889 27.99 5.41666C29.1567 5.19444 29.8789 5.16666 30.1567 5.33333C30.4345 5.5 30.7956 6.13889 31.24 7.25C31.5734 8.47222 31.99 9.30555 32.49 9.75C32.99 10.1944 33.8511 10.5833 35.0734 10.9167C36.0734 11.3611 36.6567 11.7222 36.8234 12C36.99 12.2778 36.9622 12.9722 36.74 14.0833C36.5178 15.3056 36.49 16.2222 36.6567 16.8333C36.8234 17.4444 37.3511 18.25 38.24 19.25C38.9067 20.1389 39.24 20.75 39.24 21.0833C39.24 21.4167 38.9067 22.0278 38.24 22.9167ZM21.0734 8.08333C18.74 8.08333 16.5734 8.66666 14.5734 9.83333C12.5734 11 10.99 12.5833 9.82335 14.5833C8.65669 16.5833 8.07335 18.75 8.07335 21.0833C8.07335 23.4167 8.65669 25.5833 9.82335 27.5833C10.99 29.5833 12.5734 31.1667 14.5734 32.3333C16.5734 33.5 18.74 34.0833 21.0734 34.0833C23.4067 34.0833 25.5734 33.5 27.5734 32.3333C29.5734 31.1667 31.1567 29.5833 32.3234 27.5833C33.49 25.5833 34.0734 23.4167 34.0734 21.0833C34.0734 18.75 33.49 16.5833 32.3234 14.5833C31.1567 12.5833 29.5734 11 27.5734 9.83333C25.5734 8.66666 23.4067 8.08333 21.0734 8.08333ZM21.0734 32.0833C19.0734 32.0833 17.24 31.5833 15.5734 30.5833C13.9067 29.5833 12.5734 28.25 11.5734 26.5833C10.5734 24.9167 10.0734 23.0833 10.0734 21.0833C10.0734 19.0833 10.5734 17.25 11.5734 15.5833C12.5734 13.9167 13.9067 12.5833 15.5734 11.5833C17.24 10.5833 19.0734 10.0833 21.0734 10.0833C23.0734 10.0833 24.9067 10.5833 26.5734 11.5833C28.24 12.5833 29.5734 13.9167 30.5734 15.5833C31.5734 17.25 32.0734 19.0833 32.0734 21.0833C32.0734 23.0833 31.5734 24.9167 30.5734 26.5833C29.5734 28.25 28.24 29.5833 26.5734 30.5833C24.9067 31.5833 23.0734 32.0833 21.0734 32.0833ZM27.4067 18.0833L23.74 17.5833L22.0734 13.9167C21.8511 13.4722 21.5178 13.25 21.0734 13.25C20.6289 13.25 20.2956 13.4722 20.0734 13.9167L18.4067 17.5833L14.74 18.0833C14.2956 18.1944 13.99 18.4444 13.8234 18.8333C13.6567 19.2222 13.74 19.5833 14.0734 19.9167L16.74 22.5833L15.9067 26.5833C15.7956 27.0278 15.9067 27.3889 16.24 27.6667C16.5734 27.9444 16.9622 27.9722 17.4067 27.75L21.0734 25.9167L24.74 27.75C24.8511 27.8611 25.0178 27.9167 25.24 27.9167C25.4622 27.9167 25.7122 27.8056 25.99 27.5833C26.2678 27.3611 26.3511 27.0278 26.24 26.5833L25.4067 22.5833L28.0734 19.9167C28.4067 19.5833 28.49 19.2222 28.3234 18.8333C28.1567 18.4444 27.8511 18.1944 27.4067 18.0833ZM23.4067 21.5833C23.1845 21.8056 23.1289 22.1389 23.24 22.5833L23.74 24.9167L21.5734 23.75C21.4622 23.6389 21.2956 23.5833 21.0734 23.5833C20.8511 23.5833 20.6845 23.6389 20.5734 23.75L18.4067 24.9167L18.9067 22.5833C19.0178 22.1389 18.9622 21.8056 18.74 21.5833L16.9067 19.75L19.24 19.4167C19.6845 19.4167 19.9622 19.25 20.0734 18.9167L21.0734 16.75L22.0734 18.9167C22.1845 19.25 22.4622 19.4167 22.9067 19.4167L25.24 19.75L23.4067 21.5833Z" fill="#FF9B24"/>
</svg>
