<svg width="44" height="51" viewBox="0 0 44 51" fill="none" xmlns="http://www.w3.org/2000/svg">
<path id="Vector" d="M22.24 50.75C22.1289 50.75 21.8511 50.6944 21.4067 50.5833L20.9067 50.25C14.5733 47.3611 9.62888 43.1111 6.07332 37.5C2.51777 31.8889 0.73999 25.5833 0.73999 18.5833V8.58333C0.73999 8.25 0.823324 7.94444 0.98999 7.66666C1.15666 7.38889 1.40666 7.19444 1.73999 7.08333L21.74 0.75C22.0733 0.75 22.4067 0.75 22.74 0.75L42.74 7.08333C43.0733 7.19444 43.3233 7.38889 43.49 7.66666C43.6567 7.94444 43.74 8.25 43.74 8.58333V18.5833C43.74 25.5833 41.9622 31.8889 38.4067 37.5C34.8511 43.1111 29.9067 47.3611 23.5733 50.25L22.24 50.75ZM3.57332 9.58333V18.5833C3.57332 25.0278 5.21221 30.8056 8.48999 35.9167C11.7678 41.0278 16.2955 44.9167 22.0733 47.5833L22.24 47.75L22.4067 47.5833C28.1844 44.9167 32.7122 41.0278 35.99 35.9167C39.2678 30.8056 40.9067 25.0278 40.9067 18.5833V9.58333L22.24 3.75L3.57332 9.58333ZM22.24 38.4167C21.7955 38.4167 21.4622 38.3056 21.24 38.0833L11.0733 27.9167C9.62888 26.4722 8.90666 24.6944 8.90666 22.5833C8.90666 20.4722 9.62888 18.6944 11.0733 17.25C12.5178 15.8056 14.2955 15.0833 16.4067 15.0833C18.5178 15.0833 20.2955 15.8056 21.74 17.25L22.24 17.75L22.74 17.25C24.1844 15.8056 25.9622 15.0833 28.0733 15.0833C30.1844 15.0833 31.9622 15.8056 33.4067 17.25C34.8511 18.6944 35.5733 20.4722 35.5733 22.5833C35.5733 24.6944 34.8511 26.4722 33.4067 27.9167L23.24 38.0833C23.0178 38.3056 22.6844 38.4167 22.24 38.4167ZM16.4067 17.9167C15.1844 17.9167 14.1011 18.3889 13.1567 19.3333C12.2122 20.2778 11.74 21.3889 11.74 22.6667C11.74 23.9444 12.1844 25.0278 13.0733 25.9167L22.24 34.9167L31.4067 25.9167C32.2955 25.0278 32.74 23.9444 32.74 22.6667C32.74 21.3889 32.2678 20.2778 31.3233 19.3333C30.3789 18.3889 29.2678 17.9167 27.99 17.9167C26.7122 17.9167 25.6289 18.3611 24.74 19.25L23.24 20.75C23.0178 21.0833 22.6844 21.25 22.24 21.25C21.7955 21.25 21.4622 21.0833 21.24 20.75L19.74 19.25C18.8511 18.3611 17.74 17.9167 16.4067 17.9167ZM24.4067 25.25H23.74V24.4167C23.74 23.9722 23.6011 23.6111 23.3233 23.3333C23.0455 23.0556 22.6844 22.9167 22.24 22.9167C21.7955 22.9167 21.4344 23.0556 21.1567 23.3333C20.8789 23.6111 20.74 23.9722 20.74 24.4167V25.25H20.0733C19.6289 25.25 19.2678 25.3889 18.99 25.6667C18.7122 25.9444 18.5733 26.2778 18.5733 26.6667C18.5733 27.0556 18.7122 27.3889 18.99 27.6667C19.2678 27.9444 19.6289 28.0833 20.0733 28.0833H20.74V28.9167C20.74 29.3611 20.8789 29.7222 21.1567 30C21.4344 30.2778 21.7955 30.4167 22.24 30.4167C22.6844 30.4167 23.0455 30.2778 23.3233 30C23.6011 29.7222 23.74 29.3611 23.74 28.9167V28.0833H24.4067C24.8511 28.0833 25.2122 27.9444 25.49 27.6667C25.7678 27.3889 25.9067 27.0556 25.9067 26.6667C25.9067 26.2778 25.7678 25.9444 25.49 25.6667C25.2122 25.3889 24.8511 25.25 24.4067 25.25Z" fill="#FF9B24"/>
</svg>
