<svg width="44" height="45" viewBox="0 0 44 45" fill="none" xmlns="http://www.w3.org/2000/svg">
<path id="Vector" d="M36.74 16.9168H28.4067L30.24 8.41683C30.4622 7.30572 30.3789 6.25016 29.99 5.25016C29.6011 4.25016 28.9622 3.41683 28.0733 2.75016L26.9067 1.75016C25.9067 0.972385 24.7678 0.722385 23.49 1.00016C22.2122 1.27794 21.2955 1.91683 20.74 2.91683C18.1844 7.69461 15.24 12.1946 11.9067 16.4168C11.6844 15.8613 11.24 15.5835 10.5733 15.5835H1.90666C1.46221 15.5835 1.07332 15.7224 0.73999 16.0002C0.406657 16.2779 0.23999 16.6391 0.23999 17.0835V41.5835C0.23999 42.0279 0.406657 42.4168 0.73999 42.7502C1.07332 43.0835 1.46221 43.2502 1.90666 43.2502H10.5733C10.9067 43.2502 11.2122 43.1113 11.49 42.8335C11.7678 42.5557 11.9622 42.1946 12.0733 41.7502C12.8511 42.6391 13.7955 43.3335 14.9067 43.8335C16.0178 44.3335 17.1844 44.5835 18.4067 44.5835H26.9067C28.3511 44.5835 29.7122 44.2502 30.99 43.5835C32.2678 42.9168 33.2955 41.9724 34.0733 40.7502L42.74 27.9168C43.4067 26.9168 43.7678 25.7502 43.8233 24.4168C43.8789 23.0835 43.6011 21.8335 42.99 20.6668C42.3789 19.5002 41.5178 18.5835 40.4067 17.9168C39.2955 17.2502 38.0733 16.9168 36.74 16.9168ZM8.90666 40.0835H3.40666V18.5835H8.90666V40.0835ZM40.0733 26.2502L31.5733 39.0835C31.0178 39.8613 30.3511 40.4724 29.5733 40.9168C28.7955 41.3613 27.9067 41.5279 26.9067 41.4168H18.4067C17.5178 41.4168 16.6844 41.2502 15.9067 40.9168C15.1289 40.5835 14.4622 40.0279 13.9067 39.2502L12.0733 36.7502V20.7502C14.74 18.5279 18.5178 13.1391 23.4067 4.5835C23.6289 4.25016 23.8789 4.05572 24.1567 4.00016C24.4344 3.94461 24.6844 4.02794 24.9067 4.25016L26.24 5.25016C26.6844 5.47239 26.99 5.8335 27.1567 6.3335C27.3233 6.8335 27.3511 7.30572 27.24 7.75016L24.9067 18.2502C24.7955 18.6946 24.9067 19.1113 25.24 19.5002C25.5733 19.8891 25.9622 20.0835 26.4067 20.0835H36.74C37.5178 20.0835 38.2122 20.2779 38.8233 20.6668C39.4344 21.0557 39.9067 21.5557 40.24 22.1668C40.5733 22.7779 40.74 23.4724 40.74 24.2502C40.74 25.0279 40.5178 25.6946 40.0733 26.2502Z" fill="#FF9B24"/>
</svg>
