<svg width="51" height="30" viewBox="0 0 51 30" fill="none" xmlns="http://www.w3.org/2000/svg">
<path id="Vector" d="M14.24 25.2502H10.0734C9.85113 25.2502 9.62891 25.1668 9.40669 25.0002C9.18447 24.8335 9.07335 24.6113 9.07335 24.3335C9.07335 24.0557 9.18447 23.8057 9.40669 23.5835C9.62891 23.3613 9.85113 23.2502 10.0734 23.2502H14.24C14.5734 23.2502 14.8511 23.3613 15.0734 23.5835C15.2956 23.8057 15.3789 24.0557 15.3234 24.3335C15.2678 24.6113 15.1567 24.8335 14.99 25.0002C14.8234 25.1668 14.5734 25.2502 14.24 25.2502ZM48.0734 25.2502H45.5734C45.24 25.3613 44.9622 25.3057 44.74 25.0835C44.5178 24.8613 44.4345 24.6113 44.49 24.3335C44.5456 24.0557 44.6567 23.8057 44.8234 23.5835C44.99 23.3613 45.24 23.2502 45.5734 23.2502H47.24L48.74 15.7502C48.74 13.8613 48.0178 12.1946 46.5734 10.7502C45.1289 9.30572 43.4067 8.5835 41.4067 8.5835H34.5734L31.24 23.2502H37.24C37.4622 23.2502 37.6845 23.3613 37.9067 23.5835C38.1289 23.8057 38.24 24.0557 38.24 24.3335C38.24 24.6113 38.1289 24.8335 37.9067 25.0002C37.6845 25.1668 37.4622 25.2502 37.24 25.2502H29.9067C29.5734 25.2502 29.2956 25.1391 29.0734 24.9168C28.8511 24.6946 28.7956 24.4168 28.9067 24.0835L32.74 7.41683C32.74 7.19461 32.8511 7.00016 33.0734 6.8335C33.2956 6.66683 33.5178 6.5835 33.74 6.5835H41.4067C43.9622 6.5835 46.1567 7.50016 47.99 9.3335C49.8234 11.1668 50.74 13.3613 50.74 15.9168L49.24 24.4168C49.1289 24.7502 48.99 24.9724 48.8234 25.0835C48.6567 25.1946 48.4067 25.2502 48.0734 25.2502ZM41.4067 29.4168C39.9622 29.4168 38.7122 28.9168 37.6567 27.9168C36.6011 26.9168 36.1011 25.6946 36.1567 24.2502C36.2122 22.8057 36.74 21.5835 37.74 20.5835C38.74 19.5835 39.9622 19.0835 41.4067 19.0835C42.8511 19.0835 44.0734 19.5835 45.0734 20.5835C46.0734 21.5835 46.5734 22.8057 46.5734 24.2502C46.5734 25.6946 46.0734 26.9446 45.0734 28.0002C44.0734 29.0557 42.8511 29.5835 41.4067 29.5835V29.4168ZM41.4067 21.0835C40.5178 21.0835 39.7678 21.3891 39.1567 22.0002C38.5456 22.6113 38.24 23.3613 38.24 24.2502C38.24 25.1391 38.5456 25.8891 39.1567 26.5002C39.7678 27.1113 40.5178 27.4168 41.4067 27.4168C42.2956 27.4168 43.0456 27.1113 43.6567 26.5002C44.2678 25.8891 44.5734 25.1391 44.5734 24.2502C44.5734 23.3613 44.2678 22.6113 43.6567 22.0002C43.0456 21.3891 42.2956 21.0835 41.4067 21.0835ZM18.4067 29.4168C16.9622 29.4168 15.74 28.9168 14.74 27.9168C13.74 26.9168 13.24 25.6946 13.24 24.2502C13.24 22.8057 13.74 21.5835 14.74 20.5835C15.74 19.5835 16.9622 19.0835 18.4067 19.0835C19.8511 19.0835 21.1011 19.5835 22.1567 20.5835C23.2122 21.5835 23.74 22.8057 23.74 24.2502C23.74 25.6946 23.2122 26.9446 22.1567 28.0002C21.1011 29.0557 19.8511 29.5835 18.4067 29.5835V29.4168ZM18.4067 21.0835C17.5178 21.0835 16.7956 21.3891 16.24 22.0002C15.6845 22.6113 15.4067 23.3613 15.4067 24.2502C15.4067 25.1391 15.6845 25.8891 16.24 26.5002C16.7956 27.1113 17.5178 27.4168 18.4067 27.4168C19.2956 27.4168 20.0456 27.1113 20.6567 26.5002C21.2678 25.8891 21.5734 25.1391 21.5734 24.2502C21.5734 23.3613 21.2678 22.6113 20.6567 22.0002C20.0456 21.3891 19.2956 21.0835 18.4067 21.0835ZM14.24 6.5835H5.90669C5.68447 6.5835 5.46224 6.47238 5.24002 6.25016C5.0178 6.02794 4.90669 5.77794 4.90669 5.50016C4.90669 5.22238 5.0178 4.97238 5.24002 4.75016C5.46224 4.52794 5.68447 4.41683 5.90669 4.41683H14.24C14.5734 4.41683 14.8234 4.52794 14.99 4.75016C15.1567 4.97238 15.2678 5.22238 15.3234 5.50016C15.3789 5.77794 15.2956 6.02794 15.0734 6.25016C14.8511 6.47238 14.5734 6.5835 14.24 6.5835ZM14.24 12.7502H3.90669C3.57335 12.7502 3.29558 12.6668 3.07335 12.5002C2.85113 12.3335 2.74002 12.1113 2.74002 11.8335C2.74002 11.5557 2.85113 11.3057 3.07335 11.0835C3.29558 10.8613 3.57335 10.7502 3.90669 10.7502H14.24C14.5734 10.7502 14.8234 10.8613 14.99 11.0835C15.1567 11.3057 15.2678 11.5557 15.3234 11.8335C15.3789 12.1113 15.2956 12.3335 15.0734 12.5002C14.8511 12.6668 14.5734 12.7502 14.24 12.7502ZM14.24 19.0835H1.74002C1.5178 19.0835 1.29558 18.9724 1.07335 18.7502C0.851132 18.5279 0.740021 18.2779 0.740021 18.0002C0.740021 17.7224 0.851132 17.4724 1.07335 17.2502C1.29558 17.0279 1.5178 16.9724 1.74002 17.0835H14.24C14.5734 16.9724 14.8234 17.0279 14.99 17.2502C15.1567 17.4724 15.24 17.7224 15.24 18.0002C15.24 18.2779 15.1567 18.5279 14.99 18.7502C14.8234 18.9724 14.5734 19.0835 14.24 19.0835ZM29.9067 25.2502H22.5734C22.3511 25.2502 22.1289 25.1668 21.9067 25.0002C21.6845 24.8335 21.5734 24.6113 21.5734 24.3335C21.5734 24.0557 21.6845 23.8057 21.9067 23.5835C22.1289 23.3613 22.3511 23.2502 22.5734 23.2502H29.0734L33.74 2.41683H10.0734C9.85113 2.41683 9.62891 2.30572 9.40669 2.0835C9.18447 1.86127 9.07335 1.61127 9.07335 1.3335C9.07335 1.05572 9.18447 0.805717 9.40669 0.583496C9.62891 0.361273 9.85113 0.250162 10.0734 0.250162H35.0734C35.4067 0.250162 35.6845 0.389051 35.9067 0.666828C36.1289 0.944607 36.1845 1.25016 36.0734 1.5835L30.9067 24.5835C30.9067 24.8057 30.7956 24.9724 30.5734 25.0835C30.3511 25.1946 30.1289 25.3057 29.9067 25.4168V25.2502Z" fill="#FF9B24"/>
</svg>
